<svg width="19" height="19" viewBox="0 0 19 19" fill="none" xmlns="http://www.w3.org/2000/svg">
<path fill-rule="evenodd" clip-rule="evenodd" d="M7.59398 2.53353C7.40119 2.69782 7.30479 2.77998 7.20184 2.84898C6.96584 3.00716 6.7008 3.11694 6.42208 3.17197C6.30048 3.19598 6.17423 3.20605 5.92173 3.2262C5.2873 3.27683 4.97008 3.30214 4.70543 3.39562C4.09332 3.61183 3.61184 4.0933 3.39564 4.70542C3.30216 4.97006 3.27685 5.28729 3.22621 5.92171C3.20606 6.17421 3.19599 6.30047 3.17198 6.42206C3.11695 6.70078 3.00717 6.96582 2.849 7.20182C2.78 7.30478 2.69785 7.40117 2.53354 7.59396C2.12074 8.07838 1.91433 8.32056 1.7933 8.57381C1.51334 9.15956 1.51334 9.8404 1.7933 10.4262C1.91433 10.6794 2.12074 10.9216 2.53354 11.406C2.69782 11.5988 2.78 11.6952 2.849 11.7981C3.00717 12.0341 3.11695 12.2992 3.17198 12.5779C3.19599 12.6995 3.20606 12.8258 3.22621 13.0782C3.27685 13.7127 3.30216 14.0299 3.39564 14.2945C3.61184 14.9067 4.09332 15.3882 4.70543 15.6044C4.97008 15.6978 5.2873 15.7231 5.92173 15.7738C6.17423 15.7939 6.30048 15.804 6.42208 15.828C6.7008 15.883 6.96584 15.9928 7.20184 16.151C7.30479 16.22 7.40118 16.3021 7.59398 16.4664C8.0784 16.8793 8.32057 17.0857 8.57383 17.2067C9.15958 17.4866 9.84041 17.4866 10.4262 17.2067C10.6794 17.0857 10.9216 16.8793 11.406 16.4664C11.5988 16.3021 11.6952 16.22 11.7981 16.151C12.0341 15.9928 12.2992 15.883 12.5779 15.828C12.6995 15.804 12.8258 15.7939 13.0782 15.7738C13.7127 15.7231 14.0299 15.6978 14.2946 15.6044C14.9067 15.3882 15.3882 14.9067 15.6044 14.2945C15.6978 14.0299 15.7231 13.7127 15.7738 13.0782C15.7939 12.8258 15.804 12.6995 15.828 12.5779C15.883 12.2992 15.9928 12.0341 16.151 11.7981C16.22 11.6952 16.3022 11.5988 16.4664 11.406C16.8793 10.9216 17.0857 10.6794 17.2067 10.4262C17.4866 9.8404 17.4866 9.15956 17.2067 8.57381C17.0857 8.32056 16.8793 8.07838 16.4664 7.59396C16.3022 7.40117 16.22 7.30478 16.151 7.20182C15.9928 6.96582 15.883 6.70078 15.828 6.42206C15.804 6.30047 15.7939 6.17421 15.7738 5.92171C15.7231 5.28729 15.6978 4.97006 15.6044 4.70542C15.3882 4.0933 14.9067 3.61183 14.2946 3.39562C14.0299 3.30214 13.7127 3.27683 13.0782 3.2262C12.8258 3.20605 12.6995 3.19598 12.5779 3.17197C12.2992 3.11694 12.0341 3.00716 11.7981 2.84898C11.6952 2.77998 11.5988 2.69783 11.406 2.53353C10.9216 2.12072 10.6794 1.91432 10.4262 1.79328C9.84041 1.51332 9.15958 1.51332 8.57383 1.79328C8.32057 1.91431 8.0784 2.12072 7.59398 2.53353ZM12.9624 7.8083C13.2139 7.55668 13.2139 7.14873 12.9624 6.89711C12.7108 6.64549 12.3027 6.64549 12.0511 6.89711L8.2114 10.7369L6.94882 9.47433C6.6972 9.22274 6.28925 9.22274 6.03763 9.47433C5.78602 9.72592 5.78602 10.1339 6.03763 10.3855L7.75578 12.1037C8.00739 12.3553 8.41533 12.3553 8.667 12.1037L12.9624 7.8083Z" fill="white"/>
</svg>
