<svg width="32" height="32" viewBox="0 0 32 32" fill="none" xmlns="http://www.w3.org/2000/svg">
<path fill-rule="evenodd" clip-rule="evenodd" d="M22.2393 8.35514C22.7796 8.85554 22.8119 9.69916 22.3115 10.2394L10.3031 23.2039C9.31983 24.2655 7.68017 24.2655 6.69686 23.2039L1.68848 17.7967C1.18808 17.2564 1.22038 16.4128 1.76062 15.9124C2.30085 15.412 3.14446 15.4444 3.64485 15.9845L8.5 21.2263L20.3552 8.42729C20.8556 7.88705 21.6992 7.85476 22.2393 8.35514ZM28.9067 8.35514C29.4468 8.85554 29.4792 9.69914 28.9788 10.2394L16.9704 23.2039C16.47 23.744 15.6264 23.7764 15.0861 23.276C14.5459 22.7756 14.5136 21.932 15.014 21.3917L27.0224 8.42729C27.5228 7.88705 28.3664 7.85476 28.9067 8.35514Z" fill="white"/>
</svg>
