<svg width="42" height="42" viewBox="0 0 42 42" fill="none" xmlns="http://www.w3.org/2000/svg">
<path d="M13.125 30.1875V19.5654C13.5073 19.4303 13.8386 19.1803 14.0735 18.8498C14.3084 18.5193 14.4355 18.1243 14.4375 17.7188V15.75H5.25V17.7188C5.25195 18.1243 5.37908 18.5193 5.614 18.8498C5.84892 19.1803 6.18018 19.4303 6.5625 19.5654V30.1875H13.125Z" fill="white"/>
<path d="M24.2812 30.1875V19.5654C24.6636 19.4303 24.9948 19.1803 25.2298 18.8498C25.4647 18.5193 25.5918 18.1243 25.5938 17.7188V15.75H16.4062V17.7188C16.4082 18.1243 16.5353 18.5193 16.7702 18.8498C17.0052 19.1803 17.3364 19.4303 17.7188 19.5654V30.1875H24.2812Z" fill="white"/>
<path d="M35.4375 30.1875V19.5654C35.8198 19.4303 36.1511 19.1803 36.386 18.8498C36.6209 18.5193 36.748 18.1243 36.75 17.7188V15.75H27.5625V17.7188C27.5645 18.1243 27.6916 18.5193 27.9265 18.8498C28.1614 19.1803 28.4927 19.4303 28.875 19.5654V30.1875H35.4375Z" fill="white"/>
<path d="M37.3394 6.36157L21.5894 2.72726C21.2007 2.63779 20.7968 2.63779 20.4081 2.72726L4.65811 6.36288C4.07818 6.49467 3.56059 6.82041 3.19092 7.28627C2.82124 7.75212 2.62161 8.33018 2.62504 8.92488V10.4999C2.62504 11.1961 2.90161 11.8638 3.39389 12.356C3.88617 12.8483 4.55385 13.1249 5.25004 13.1249H36.75C37.4462 13.1249 38.1139 12.8483 38.6062 12.356C39.0985 11.8638 39.375 11.1961 39.375 10.4999V8.92488C39.3786 8.3296 39.1788 7.75095 38.8086 7.28477C38.4383 6.8186 37.92 6.49288 37.3394 6.36157Z" fill="white"/>
<path d="M37.4062 32.8125H4.59375C4.07161 32.8125 3.57085 33.0199 3.20163 33.3891C2.83242 33.7583 2.625 34.2591 2.625 34.7812C2.625 35.3034 2.83242 35.8042 3.20163 36.1734C3.57085 36.5426 4.07161 36.75 4.59375 36.75H37.4062C37.9284 36.75 38.4292 36.5426 38.7984 36.1734C39.1676 35.8042 39.375 35.3034 39.375 34.7812C39.375 34.2591 39.1676 33.7583 38.7984 33.3891C38.4292 33.0199 37.9284 32.8125 37.4062 32.8125Z" fill="white"/>
</svg>
