<svg width="33" height="33" viewBox="0 0 33 33" fill="none" xmlns="http://www.w3.org/2000/svg">
<path d="M25.8142 21.3253C24.5073 23.1203 22.3903 24.2893 20.0051 24.2893H16.6584C15.5023 24.2893 14.5177 23.5553 14.1449 22.528C13.6847 22.3907 13.2334 22.2125 12.7931 21.9937C11.8605 21.5304 11.0137 20.9026 10.2683 20.125C5.43322 21.1872 1.81445 25.4955 1.81445 30.6498V31.3235C1.81445 32.2496 2.56524 33.0003 3.49135 33.0003H29.5086C30.4347 33.0003 31.1855 32.2496 31.1855 31.3235V30.6498C31.1854 26.6681 29.0257 23.1911 25.8142 21.3253Z" fill="white"/>
<path d="M8.48608 16.6683C9.20679 16.6683 9.8341 16.2688 10.1591 15.6794C10.1676 15.7027 10.1763 15.7259 10.1851 15.7491C10.1877 15.756 10.1903 15.763 10.1928 15.77C10.9553 17.7768 12.4387 19.4592 14.3949 20.1942C14.868 19.4425 15.7046 18.9425 16.6585 18.9425H20.0052C20.3391 18.9425 20.6498 18.8484 20.9221 18.6961C21.3796 18.4403 21.791 17.7914 22.0034 17.4474C22.3433 16.897 22.6067 16.314 22.8403 15.6784C22.9715 15.9167 23.152 16.124 23.3682 16.2865V17.1071C23.3682 18.9615 21.8596 20.4702 20.0052 20.4702H16.6584C16.0257 20.4702 15.5128 20.9831 15.5128 21.6158C15.5128 22.2486 16.0257 22.7615 16.6584 22.7615H20.0052C23.123 22.7615 25.6595 20.2249 25.6595 17.1071V16.2865C26.1233 15.9381 26.4233 15.3836 26.4233 14.7589V11.3044V9.97973C26.4233 9.34223 26.1106 8.77817 25.6306 8.43134C25.2582 3.71992 21.3054 0 16.5 0C11.6944 0 7.74168 3.71992 7.36938 8.43127C6.88931 8.77809 6.57666 9.34223 6.57666 9.97966V14.7588C6.57666 15.8163 7.43578 16.6683 8.48608 16.6683ZM16.5 2.29135C20.0573 2.29135 22.9915 5.00993 23.3345 8.47865C23.1093 8.65576 22.9249 8.88212 22.7978 9.14186C21.7168 6.32148 19.3036 4.35785 16.4999 4.35785C13.6357 4.35785 11.2612 6.38896 10.2062 9.13059C10.2048 9.13432 10.2034 9.13813 10.202 9.14193C10.0749 8.88219 9.89046 8.65583 9.66532 8.47873C10.0085 5.00993 12.9426 2.29135 16.5 2.29135Z" fill="white"/>
</svg>
