<svg width="39" height="39" viewBox="0 0 39 39" fill="none" xmlns="http://www.w3.org/2000/svg">
<path d="M16.9875 22.0129C19.6716 24.503 23.2939 27.33 26.4109 24.3565C26.8166 23.9509 27.2981 23.6291 27.8281 23.4095C28.3582 23.19 28.9262 23.077 29.4999 23.077C30.0736 23.077 30.6416 23.19 31.1717 23.4095C31.7017 23.6291 32.1832 23.9509 32.5889 24.3565C33.9511 25.8244 36.5434 27.6466 36.3682 29.9455C36.3971 30.5578 36.2982 31.1694 36.0779 31.7414C35.8577 32.3134 35.5208 32.8334 35.0888 33.2682C27.3098 40.2968 19.3684 34.1824 11.876 27.1246C4.81704 19.6326 -1.29482 11.6898 5.73201 3.91153C6.16688 3.47949 6.68687 3.14263 7.25893 2.92235C7.831 2.70208 8.44262 2.6032 9.05495 2.63201C11.3595 2.46251 13.1606 5.0337 14.6439 6.41152C15.0496 6.81717 15.3714 7.29875 15.5909 7.82876C15.8105 8.35877 15.9235 8.92683 15.9235 9.50051C15.9235 10.0742 15.8105 10.6423 15.5909 11.1723C15.3714 11.7023 15.0496 12.1839 14.6439 12.5895C11.6711 15.709 14.4974 19.3265 16.9875 22.0129Z" fill="white"/>
</svg>
