<svg width="37" height="37" viewBox="0 0 37 37" fill="none" xmlns="http://www.w3.org/2000/svg">
<g clip-path="url(#clip0_71_194)">
<path d="M36.0022 16.0932C36.0013 16.0924 36.0005 16.0915 35.9996 16.0907L20.9066 0.998169C20.2632 0.354553 19.4079 0 18.4981 0C17.5883 0 16.733 0.354271 16.0893 0.997887L1.00417 16.0828C0.999092 16.0879 0.994011 16.0932 0.988929 16.0983C-0.332176 17.427 -0.329918 19.5829 0.995422 20.9082C1.60093 21.514 2.40065 21.8649 3.2557 21.9016C3.29042 21.905 3.32542 21.9066 3.36071 21.9066H3.96226V33.0138C3.96226 35.2117 5.75056 37 7.94901 37H13.8539C14.4524 37 14.9379 36.5147 14.9379 35.916V27.208C14.9379 26.205 15.7537 25.3892 16.7567 25.3892H20.2395C21.2425 25.3892 22.0583 26.205 22.0583 27.208V35.916C22.0583 36.5147 22.5436 37 23.1423 37H29.0472C31.2456 37 33.0339 35.2117 33.0339 33.0138V21.9066H33.5917C34.5013 21.9066 35.3566 21.5524 36.0005 20.9088C37.3272 19.5812 37.3278 17.4217 36.0022 16.0932Z" fill="white"/>
</g>
<defs>
<clipPath id="clip0_71_194">
<rect width="37" height="37" fill="white"/>
</clipPath>
</defs>
</svg>
