<svg width="44" height="44" viewBox="0 0 44 44" fill="none" xmlns="http://www.w3.org/2000/svg">
<path d="M10.3125 20.0234C4.61713 20.0234 0 24.6406 0 30.3359C0 36.0313 4.61713 40.6484 10.3125 40.6484C16.0079 40.6484 20.625 36.0313 20.625 30.3359C20.625 24.6406 16.0079 20.0234 10.3125 20.0234ZM10.3125 34.2031C8.18018 34.2031 6.44531 32.4683 6.44531 30.3359C6.44531 28.2036 8.18018 26.4688 10.3125 26.4688C12.4448 26.4688 14.1797 28.2036 14.1797 30.3359C14.1797 32.4683 12.4448 34.2031 10.3125 34.2031Z" fill="white"/>
<path d="M10.3125 29.0469C9.60184 29.0469 9.02344 29.6253 9.02344 30.3359C9.02344 31.0466 9.60184 31.625 10.3125 31.625C11.0232 31.625 11.6016 31.0466 11.6016 30.3359C11.6016 29.6253 11.0232 29.0469 10.3125 29.0469Z" fill="white"/>
<path d="M33.6875 11C33.6875 10.2893 34.2659 9.71094 34.9766 9.71094V7.13281C32.8442 7.13281 31.1094 8.86768 31.1094 11V14.8672H33.6875V11Z" fill="white"/>
<path d="M27.3375 27.7578C29.1231 24.6778 32.4565 22.6016 36.2656 22.6016C38.1428 22.6016 39.9042 23.1058 41.4219 23.986V22.6016C41.4219 19.7582 39.1089 17.4453 36.2656 17.4453H18.8532C16.404 15.8172 13.4673 14.8672 10.3125 14.8672C6.72562 14.8672 3.22937 16.123 0.468292 18.4034L2.10983 20.3914C4.41034 18.4917 7.32349 17.4453 10.3125 17.4453C16.5376 17.4453 21.7462 21.8812 22.944 27.7578H27.3375Z" fill="white"/>
<path d="M26.2794 30.3359H23.2031V34.2031H26.0337C25.9807 33.7808 25.9531 33.3505 25.9531 32.9141C25.9531 32.0241 26.0666 31.1604 26.2794 30.3359Z" fill="white"/>
<path d="M36.2656 25.1797C31.9939 25.1797 28.5312 28.6424 28.5312 32.9141C28.5312 37.1858 31.9939 40.6484 36.2656 40.6484C40.5373 40.6484 44 37.1858 44 32.9141C44 28.6424 40.5373 25.1797 36.2656 25.1797ZM36.2656 34.2031C35.5536 34.2031 34.9766 33.6261 34.9766 32.9141C34.9766 32.2021 35.5536 31.625 36.2656 31.625C36.9776 31.625 37.5547 32.2021 37.5547 32.9141C37.5547 33.6261 36.9776 34.2031 36.2656 34.2031Z" fill="white"/>
<path d="M6.44531 12.7097C7.70886 12.4321 9.00531 12.2891 10.3125 12.2891C13.6026 12.2891 16.7961 13.178 19.5995 14.8672H24.6211L22.2524 5.84375H24.4922V3.26562H3.86719V5.84375H6.44531V12.7097Z" fill="white"/>
</svg>
