<svg width="47" height="46" viewBox="0 0 47 46" fill="none" xmlns="http://www.w3.org/2000/svg">
<path d="M38.1875 26.3496V32.6027C38.1875 34.874 36.8216 36.9009 34.7066 37.8496C32.1362 38.9996 28.2441 40.2502 23.5 40.2502C18.7559 40.2502 14.8637 38.9996 12.2787 37.8496C10.1784 36.9009 8.8125 34.874 8.8125 32.6027V26.3496L19.2553 31.0215C20.5919 31.6252 22.0312 31.9271 23.5 31.9271C24.9688 31.9271 26.4081 31.6252 27.7447 31.0215L38.1875 26.3496Z" fill="white"/>
<path d="M44.0625 23.7188V33.0625C44.0625 33.8531 43.4016 34.5 42.5938 34.5C41.7859 34.5 41.125 33.8531 41.125 33.0625V25.0413L44.0625 23.7188Z" fill="white"/>
<path d="M20.4714 28.4106C21.4335 28.8405 22.466 29.0561 23.5 29.0561C24.534 29.0561 25.5651 28.8419 26.5286 28.4106L45.286 20.0185C46.3435 19.5456 47 18.5436 47 17.4037C47 16.2638 46.3435 15.2604 45.286 14.7875L26.5286 6.39677C24.603 5.53571 22.3984 5.53571 20.4729 6.39677L1.71403 14.786C0.656531 15.2604 0 16.2623 0 17.4023C0 18.5422 0.656531 19.5441 1.71403 20.0185L20.4714 28.4106Z" fill="white"/>
</svg>
