<svg width="36" height="37" viewBox="0 0 36 37" fill="none" xmlns="http://www.w3.org/2000/svg">
<path d="M26.4375 2.16797C24.484 2.16797 22.693 2.8042 21.1144 4.05902C19.6009 5.26202 18.5932 6.79427 18 7.90846C17.4068 6.7942 16.3991 5.26202 14.8856 4.05902C13.307 2.8042 11.516 2.16797 9.5625 2.16797C4.11103 2.16797 0 6.75084 0 12.8282C0 19.3938 5.1288 23.8859 12.8931 30.6863C14.2116 31.8412 15.7061 33.1502 17.2595 34.5463C17.4642 34.7306 17.7272 34.832 18 34.832C18.2728 34.832 18.5358 34.7306 18.7405 34.5464C20.294 33.15 21.7884 31.8411 23.1077 30.6856C30.8712 23.8859 36 19.3938 36 12.8282C36 6.75084 31.889 2.16797 26.4375 2.16797Z" fill="white"/>
</svg>
