<svg width="58" height="30" viewBox="0 0 58 30" fill="none" xmlns="http://www.w3.org/2000/svg">
<g clip-path="url(#clip0_71_181)">
<path d="M24.988 27.5662C25.1537 27.1178 25.2387 26.6588 25.2387 26.2072C25.2387 24.6645 24.3271 23.2758 22.9161 22.667C20.4872 21.6002 19.0274 19.0301 19.361 16.4142L19.9018 12.1482C19.6256 12.2301 19.3387 12.2896 19.0391 12.3087C17.6281 12.3958 16.3392 11.7466 15.5764 10.563C15.2597 10.0711 14.7412 9.78737 14.1558 9.78418H14.1462C13.5651 9.78418 13.0476 10.0626 12.7278 10.5492L0.161621 29.6009H24.2251L24.988 27.5662Z" fill="white"/>
<path d="M46.0488 13.9743C45.5059 13.953 45.0033 14.1878 44.6655 14.6096L42.2419 17.6282L45.0033 22.3946C45.2976 22.9025 45.1245 23.5527 44.6166 23.847C44.1077 24.1403 43.4585 23.9671 43.1641 23.4603L40.0372 18.0638C40.0372 18.0638 40.0319 18.0543 40.0287 18.049L29.8106 0.414651C29.4887 -0.141037 28.9213 -0.457663 28.27 -0.432163C27.6272 -0.406663 27.079 -0.0432878 26.8027 0.5379L22.3168 9.98352L21.4679 16.6815C21.2522 18.3698 22.1968 20.0295 23.7629 20.718C25.9474 21.6593 27.3626 23.8152 27.3626 26.2068C27.3626 26.9102 27.233 27.6168 26.978 28.3074L26.4935 29.6005H57.7756L47.3855 14.7021C47.0763 14.259 46.5886 13.9934 46.0478 13.9753L46.0488 13.9743Z" fill="white"/>
</g>
<defs>
<clipPath id="clip0_71_181">
<rect width="58" height="30" fill="white"/>
</clipPath>
</defs>
</svg>
