<svg width="41" height="41" viewBox="0 0 41 41" fill="none" xmlns="http://www.w3.org/2000/svg">
<g clip-path="url(#clip0_71_205)">
<path d="M21.7812 0C19.1314 0 16.9766 2.15482 16.9766 4.80469C16.9766 7.45455 19.1314 9.60938 21.7812 9.60938C24.4311 9.60938 26.5859 7.45455 26.5859 4.80469C26.5859 2.15482 24.4311 0 21.7812 0Z" fill="white"/>
<path d="M38.5977 18.1777V19.3789C38.5977 20.8648 37.2949 22.0334 35.6614 21.6974C34.0604 16.2024 28.9874 12.1719 22.9824 12.1719H14.9572C14.6228 12.1719 14.3084 12.0323 14.095 11.7895C12.9607 10.5062 11.3267 9.76953 9.60938 9.76953H6.00586C5.2271 9.76953 4.65566 10.4977 4.83872 11.2546L6.05511 16.2645C5.166 17.1936 4.42464 18.2376 3.84279 19.3789C1.43724 19.3789 0 21.0939 0 22.9824V26.5425C0 28.8231 1.76556 29.6557 3.64339 30.9824C4.38708 32.5719 5.42521 33.9783 6.73433 35.1689C6.91146 35.3284 7.20703 35.665 7.20703 36.119V38.9518C7.20703 40.0815 8.12553 41 9.25511 41H13.5672C14.6903 41 15.6152 40.2401 15.6152 38.5977H22.9824C22.9824 40.2401 23.9074 41 25.0305 41H29.3425C30.4721 41 31.3906 40.0815 31.3906 38.9519C31.3906 37.1366 31.185 35.8998 32.4522 34.6C34.7759 32.2109 36.1953 28.9527 36.1953 25.3848C36.1953 24.9774 36.1704 24.576 36.1341 24.1779C36.1567 24.1782 36.1797 24.1848 36.2023 24.1848C38.8342 24.1848 41 22.044 41 19.3789V18.1777C41 16.5943 38.5977 16.5879 38.5977 18.1777ZM8.4082 22.9824C7.74484 22.9824 7.20703 22.4446 7.20703 21.7812C7.20703 21.1177 7.74484 20.5801 8.4082 20.5801C9.07157 20.5801 9.60938 21.1177 9.60938 21.7812C9.60938 22.4446 9.07157 22.9824 8.4082 22.9824ZM22.9824 19.3789H17.5197C15.9363 19.3789 15.9298 16.9766 17.5197 16.9766H22.9824C24.5658 16.9766 24.5723 19.3789 22.9824 19.3789Z" fill="white"/>
</g>
<defs>
<clipPath id="clip0_71_205">
<rect width="41" height="41" fill="white"/>
</clipPath>
</defs>
</svg>
