<svg width="32" height="32" viewBox="0 0 32 32" fill="none" xmlns="http://www.w3.org/2000/svg">
<g clip-path="url(#clip0_71_174)">
<path d="M0.0437012 24.1504C0.624326 28.5254 4.35058 31.8966 8.86245 31.8966C13.3743 31.8966 17.1 28.5216 17.6806 24.1504H0.0437012Z" fill="white"/>
<path d="M17.6806 21.7652C17.1 17.3902 13.3737 14.0195 8.86245 14.0195C4.3512 14.0195 0.624951 17.3927 0.0437012 21.7652H17.6806Z" fill="white"/>
<path d="M31.3124 20.6286L28.4374 13.793C25.6727 13.9527 22.9565 14.5901 20.4093 15.6767C19.6743 15.9884 18.9601 16.3336 18.2668 16.7123C19.5254 18.6238 20.1771 20.8709 20.1365 23.1591C20.0959 25.4473 19.3649 27.6699 18.0393 29.5355C19.1789 30.6989 20.6426 31.4919 22.2396 31.811C23.8366 32.1301 25.4927 31.9604 26.9918 31.3242C31.1249 29.5698 33.0624 24.7811 31.3124 20.6286Z" fill="white"/>
<path d="M24.7206 4.95735C22.9743 0.805479 18.2074 -1.13827 14.0743 0.616729C9.94118 2.3711 8.00681 7.15985 9.75368 11.3124L9.90868 11.6817C12.4753 11.9209 14.8811 13.0371 16.7212 14.8424C17.6147 14.3355 18.5367 13.8804 19.4824 13.4792C22.0197 12.3968 24.7113 11.7196 27.4587 11.4724L24.7206 4.95735ZM22.1074 7.43736C21.9637 7.49781 21.8094 7.52935 21.6535 7.53019C21.4975 7.53103 21.3429 7.50114 21.1985 7.44223C21.0541 7.38332 20.9228 7.29655 20.8119 7.18687C20.701 7.07718 20.6129 6.94674 20.5524 6.80298C20.3219 6.24832 19.9661 5.75451 19.513 5.36018C19.0599 4.96584 18.5217 4.68166 17.9406 4.52985C17.6382 4.44757 17.3806 4.24908 17.2239 3.97766C17.0672 3.70624 17.0242 3.38389 17.1042 3.08089C17.1842 2.77788 17.3807 2.51878 17.651 2.36007C17.9212 2.20135 18.2432 2.1559 18.5468 2.2336C19.48 2.47709 20.3442 2.93309 21.0719 3.56594C21.7997 4.1988 22.3712 4.99138 22.7418 5.88173C22.8024 6.02552 22.834 6.17983 22.8349 6.33585C22.8358 6.49186 22.8059 6.64653 22.747 6.79099C22.6881 6.93546 22.6013 7.06691 22.4915 7.17781C22.3818 7.28872 22.2513 7.37691 22.1074 7.43736Z" fill="white"/>
</g>
<defs>
<clipPath id="clip0_71_174">
<rect width="32" height="32" fill="white"/>
</clipPath>
</defs>
</svg>
